<svg xmlns="http://www.w3.org/2000/svg" width="800" height="440" viewBox="0 0 800 440">
<defs><linearGradient id="s" x2="0" y2="1"><stop stop-color="#667f79"/><stop offset="1" stop-color="#b9b794"/></linearGradient></defs>
<path fill="url(#s)" d="M0 0h800v440H0z"/><circle cx="620" cy="92" r="43" fill="#efd3a0"/><path d="M0 252 180 85 378 254 566 150 800 261v179H0" fill="#4f7066"/><path d="M0 285Q160 180 342 280T800 248v192H0" fill="#355b4f"/><path d="M0 352Q300 250 800 338v102H0" fill="#29463e"/>
<path d="m315 330 169-2 102 112H209z" fill="#aa976e"/><path d="M272 223h251v121H272z" fill="#dbbd85"/><path d="m246 230 151-104 153 104z" fill="#975f4b"/><path d="m257 224 140-96 143 96" fill="none" stroke="#e0aa73" stroke-width="8"/><path d="M312 256h44v46h-44zM440 256h44v46h-44z" fill="#334a44"/><path d="M376 273a23 23 0 0 1 46 0v71h-46z" fill="#253e36"/><path d="M289 317h215" stroke="#9b7b55" stroke-width="5"/>
<g fill="#65916a"><circle cx="138" cy="267" r="58"/><circle cx="191" cy="287" r="47"/><circle cx="649" cy="267" r="65"/><circle cx="714" cy="303" r="46"/></g><g fill="#c69766"><circle cx="118" cy="247" r="7"/><circle cx="152" cy="285" r="7"/><circle cx="180" cy="266" r="6"/><circle cx="631" cy="249" r="7"/><circle cx="680" cy="278" r="7"/><circle cx="642" cy="298" r="6"/></g><path d="M140 306v64m511-56v59" stroke="#554c38" stroke-width="12"/><g stroke="#b5ac85" stroke-width="7"><path d="M0 361h234m343 0h223M31 341v49m64-49v49m64-49v49m460-49v49m65-49v49m65-49v49"/></g><path d="M0 416q123-60 255 24H0m545 0q135-80 255-32v32" fill="#193931"/>
</svg>
